<svg xmlns="http://www.w3.org/2000/svg" viewBox="0 0 100 100"><defs><style>.cls-1{fill:#f40000;}</style></defs><title>Scroll Logo</title><g id="Layer_2" data-name="Layer 2"><g id="Layer_1-2" data-name="Layer 1"><path class="cls-1" d="M50,100A50,50,0,0,1,49.88,0,50,50,0,0,1,100,49.88,50,50,0,0,1,50.12,100ZM49.89,1.46V2.92A47.08,47.08,0,0,0,50,97.08h.11A47.08,47.08,0,0,0,50,2.92h-.11Z"/><path class="cls-1" d="M45.5,86.4a9.25,9.25,0,0,1-5.39-2.1c-.6-.53-.68-1.74-.69-3a20.24,20.24,0,0,1,1.22-7.82,11,11,0,0,0,.7-5c-.34-3.78-1.69-8.19-1.69-14.08-.07-.45.16-.7.17-1s-.09-3.09-.12-4.78a28.84,28.84,0,0,1,1.25-8c0-.19-.2-.17-.16-.68.13-1.93,1.41-4.11,2.18-6.24a43.8,43.8,0,0,0,2.54-10.65,11,11,0,0,0,0-3.05,1.72,1.72,0,0,1-.59-1.67c0-.49.44-1,.59-2.11L45,16.14s.08-.66.2-1.22.09-.84.39-1.16a1.83,1.83,0,0,1,1.33-.56s2.6-.06,3.21-.06,3,.06,3,.06a1.85,1.85,0,0,1,1.33.56,1.83,1.83,0,0,1,.39,1.16,9.94,9.94,0,0,0,.2,1.22l-.56.12c.15,1.12.54,1.62.59,2.11A1.72,1.72,0,0,1,54.47,20a11,11,0,0,0,0,3.05A43.77,43.77,0,0,0,57,33.74c.77,2.13,2,4.31,2.18,6.24,0,.52-.17.49-.16.68a28.84,28.84,0,0,1,1.25,8c0,1.68,0,4.4-.12,4.78s.24.55.17,1c0,5.84-1.36,10.3-1.7,14.08a11,11,0,0,0,.7,5,20.21,20.21,0,0,1,1.22,7.82c0,1.25-.09,2.45-.69,3a9.32,9.32,0,0,1-5.33,2.1c-.33,0-2.34.27-4.37.27s-4-.26-4.7-.27Z"/><path class="cls-1" d="M33.11,67.33s3.84,2.75,1.7,8.37C34.81,75.7,29.69,74.1,33.11,67.33Z"/><path class="cls-1" d="M34.28,76.66s-4,4.74-10.73-.28C23.55,76.38,28,73.38,34.28,76.66Z"/><path class="cls-1" d="M29.33,62.55a7.7,7.7,0,0,1-.46,8.75S24.41,67.59,29.33,62.55Z"/><path class="cls-1" d="M27.93,71.91s-5.22,3.35-9.85-2.56C18.07,69.35,24,67.34,27.93,71.91Z"/><path class="cls-1" d="M24,65.46s4.77-2.5,2-8.63A6.7,6.7,0,0,0,24,65.46Z"/><path class="cls-1" d="M23.07,65.9s-5.19,2.24-8.78-4.7A8.45,8.45,0,0,1,23.07,65.9Z"/><path class="cls-1" d="M20.66,58.33s4.5-1.1,3.67-7.9C24.33,50.42,18.66,52.62,20.66,58.33Z"/><path class="cls-1" d="M19.64,58.54s-6.23.56-7.15-7.54C12.49,51,18.05,51.93,19.64,58.54Z"/><path class="cls-1" d="M19.24,50.19s4.94-.31,5.62-6.91C24.86,43.28,19.43,43.61,19.24,50.19Z"/><path class="cls-1" d="M18.15,50.19S12,48.93,13.85,40.55C13.85,40.55,18.15,43,18.15,50.19Z"/><path class="cls-1" d="M20.09,41.59s4.68.82,7.2-5.3A6.48,6.48,0,0,0,20.09,41.59Z"/><path class="cls-1" d="M19,41.29s-4.94-1.86-1.45-9.39C17.58,31.89,21.24,34.7,19,41.29Z"/><path class="cls-1" d="M23.07,34s4,2.36,8.23-3.17A6.36,6.36,0,0,0,23.07,34Z"/><path class="cls-1" d="M22.09,33.49S17.92,29,23,24.6C23,24.6,25.58,27.89,22.09,33.49Z"/><path class="cls-1" d="M27.83,27.57s3.75,2.71,9.12-3.09A8.21,8.21,0,0,0,27.83,27.57Z"/><path class="cls-1" d="M26.94,26.92s-2.64-4.86,4-8.58C31,18.33,32,22.35,26.94,26.92Z"/><path class="cls-1" d="M33.28,22.38s-.46-5.93,6.69-7.86C40,14.52,40.33,21.39,33.28,22.38Z"/><path class="cls-1" d="M67.08,67.33s-3.84,2.75-1.7,8.37C65.39,75.7,70.51,74.1,67.08,67.33Z"/><path class="cls-1" d="M65.92,76.66s4,4.74,10.73-.28C76.65,76.38,72.18,73.38,65.92,76.66Z"/><path class="cls-1" d="M70.87,62.55a7.7,7.7,0,0,0,.46,8.75S75.79,67.59,70.87,62.55Z"/><path class="cls-1" d="M72.27,71.91s5.22,3.35,9.85-2.56C82.12,69.35,76.21,67.34,72.27,71.91Z"/><path class="cls-1" d="M76.16,65.46s-4.77-2.5-2-8.63A6.7,6.7,0,0,1,76.16,65.46Z"/><path class="cls-1" d="M77.13,65.9s5.19,2.24,8.78-4.7A8.45,8.45,0,0,0,77.13,65.9Z"/><path class="cls-1" d="M79.54,58.33s-4.5-1.1-3.67-7.9C75.87,50.42,81.54,52.62,79.54,58.33Z"/><path class="cls-1" d="M80.56,58.54s6.23.56,7.15-7.54C87.71,51,82.14,51.93,80.56,58.54Z"/><path class="cls-1" d="M81,50.19s-4.94-.31-5.62-6.91C75.34,43.28,80.77,43.61,81,50.19Z"/><path class="cls-1" d="M82.05,50.19s6.19-1.26,4.29-9.64C86.35,40.55,82.05,43,82.05,50.19Z"/><path class="cls-1" d="M80.11,41.59s-4.68.82-7.2-5.3A6.48,6.48,0,0,1,80.11,41.59Z"/><path class="cls-1" d="M81.17,41.29s4.94-1.86,1.45-9.39C82.62,31.89,79,34.7,81.17,41.29Z"/><path class="cls-1" d="M77.13,34s-4,2.36-8.23-3.17A6.36,6.36,0,0,1,77.13,34Z"/><path class="cls-1" d="M78.1,33.49s4.18-4.45-.94-8.89C77.16,24.6,74.61,27.89,78.1,33.49Z"/><path class="cls-1" d="M72.37,27.57s-3.75,2.71-9.12-3.09A8.21,8.21,0,0,1,72.37,27.57Z"/><path class="cls-1" d="M73.26,26.92s2.64-4.86-4-8.58C69.22,18.33,68.21,22.35,73.26,26.92Z"/><path class="cls-1" d="M66.92,22.38s.46-5.93-6.69-7.86C60.23,14.52,59.87,21.39,66.92,22.38Z"/></g></g></svg>